<svg id="Ebene_1" xmlns="http://www.w3.org/2000/svg" viewBox="0 0 150 50"><style>.st0{fill:#f6f6f6}</style><path class="st0" d="M129.6.4h-6.1v26.2h5V11l6.3 15.5h3.9L145 11v15.5h5V.4h-5.9l-7.2 18.3L129.6.4zM118 .4h-5v16.1c0 3.6-2.4 5.6-5.4 5.6-3 0-5.3-2-5.3-5.6V.4h-5v16.1c0 6.4 4.7 10.4 10.3 10.4 5.7 0 10.3-4 10.3-10.4V.4zM78 5.2h5.1c1.6 0 3 1.3 3 3.1 0 1.7-1.5 3.3-3.2 3.3H78V5.2zM73 .4v26.2h5V16.3h2.4l7.1 10.3h6.1L86 15.7c2.9-1.2 5.1-4.1 5.1-7.4 0-4.4-3.7-7.9-8-7.9H73zm-8.8 17.5c-1.2 2.5-3.9 4.2-6.7 4.2-4.5 0-7.7-3.7-7.7-8.7 0-4.9 3.2-8.7 7.7-8.7 2.5 0 5.1 1.5 6.5 3.8l3.9-3.1C65.7 2 61.9 0 57.5 0c-7.4 0-12.7 5.8-12.7 13.5S50.2 27 57.5 27c4.5 0 8.4-2.2 10.7-6l-4-3.1zM40.7.4h-4.9v16.1c0 3.6-2.4 5.6-5.4 5.6-3 0-5.3-2-5.3-5.6V.4h-5v16.1c0 6.4 4.7 10.4 10.3 10.4 5.7 0 10.3-4 10.3-10.4V.4zM6 .4H1v26.2h15.4v-4.8H6V.4zm140.3 41.7c.3.2.9.4 1.5.4 1.4 0 2.1-.8 2.1-1.7 0-.9-.5-1.4-1.5-1.8-.8-.3-1.2-.6-1.2-1.1 0-.4.3-.9 1.1-.9.5 0 .9.2 1.1.3l.2-.6c-.3-.2-.7-.3-1.3-.3-1.2 0-1.9.7-1.9 1.6 0 .8.6 1.3 1.6 1.7.8.3 1.1.6 1.1 1.2s-.5 1-1.2 1c-.5 0-1-.2-1.4-.4l-.2.6zm-3.6-3.1h-2.3v-1.9h2.4v-.6h-3.2v6h3.3v-.6h-2.6v-2.1h2.3V39zm-7.6 3.4h.8v-6.3h-.8v6.3zm-3.6-3.1h-2v.6h1.2v1.8c-.2.1-.5.2-1 .2-1.4 0-2.3-.9-2.3-2.4s.9-2.4 2.4-2.4c.6 0 1 .1 1.3.3l.2-.6c-.3-.1-.8-.3-1.5-.3-2 0-3.2 1.3-3.2 3.1 0 .9.3 1.7.8 2.2.6.6 1.3.8 2.2.8.8 0 1.5-.2 1.8-.3v-3zM120.7 37c1.3 0 1.9 1.2 1.9 2.4 0 1.4-.7 2.5-1.9 2.5s-1.9-1.1-1.9-2.4c0-1.4.6-2.5 1.9-2.5m0-.7c-1.6 0-2.8 1.2-2.8 3.1 0 1.8 1.1 3 2.7 3 1.5 0 2.8-1.1 2.8-3.1 0-1.7-1.1-3-2.7-3m-8.9 6.1h3.3v-.6h-2.5v-5.3h-.8v5.9zm-6.3-5.4c1.3 0 1.9 1.2 1.9 2.4 0 1.4-.7 2.5-1.9 2.5s-1.9-1.1-1.9-2.4c0-1.4.6-2.5 1.9-2.5m.1-.7c-1.6 0-2.8 1.2-2.8 3.1 0 1.8 1.1 3 2.7 3 1.5 0 2.8-1.1 2.8-3.1-.1-1.7-1.1-3-2.7-3m-10.1 6.1v-2.5c0-1 0-1.7-.1-2.5.3.6.7 1.3 1.1 2l1.9 3h.8v-6h-.7v2.5c0 .9 0 1.7.1 2.4-.3-.6-.6-1.2-1.1-1.9l-1.9-3h-.8v6h.7zm-9-6v6h.8v-2.8h2.9v2.8h.8v-6h-.8v2.5h-2.9v-2.5h-.8zm-3.6 5.2c-.3.2-.8.2-1.3.2-1.4 0-2.3-.9-2.3-2.4 0-1.6.9-2.5 2.3-2.5.5 0 .9.1 1.2.2l.2-.6c-.2-.1-.7-.3-1.4-.3-1.8 0-3.1 1.3-3.1 3.1 0 2 1.3 3 2.9 3 .7 0 1.3-.1 1.6-.3l-.1-.4zM75.2 39h-2.3v-1.9h2.4v-.6h-3.2v6h3.3v-.6h-2.6v-2.1h2.3V39zm-8.9 3.4h.7v-5.3h1.8v-.7h-4.4v.7h1.8v5.3z"/></svg>