<svg id="Ebene_1" xmlns="http://www.w3.org/2000/svg" viewBox="0 0 150 150">
    <style>
        .st0{fill:#d3d3d1}.st1{fill:#4b5d9d}.st2{stroke:#d3d3d1;stroke-width:1.8}.st2,.st3,.st4{fill:none}.st4{stroke:#4b5d9d;stroke-width:1.8}
    </style>
    <path class="st0" d="M21.2 35.3C12.5 50 9.9 67 14.1 82.9c3.7 14.2 12.4 26.2 24.7 34.1l-4.3 1 .4 1.8 7.4-1.6-2.2-7.3-1.7.5 1.2 4.1c-11.8-7.6-20.2-19.2-23.8-32.9-4-15.5-1.5-31.9 6.9-46.3 16-27.1 50-37.5 77.4-23.7l.8-1.6C72.7-3.4 37.7 7.4 21.2 35.3z"/>
    <path class="st0" d="M129.5 57h-60v16h-19v72h59v-15h20V57zm-22 86h-55V75h17v55h2V75h36v68zm20-15h-18V73h-38V59h56v69z"/>
    <path class="st1" d="M135.9 51.8c-3.7-14.2-12.4-26.2-24.7-34.1l4.3-1-.4-1.8-7.4 1.6 2.2 7.3 1.7-.5-1.2-4.1c11.8 7.6 20.2 19.2 23.8 32.9 4 15.5 1.5 31.9-6.9 46.3-4.2 7.1-9.6 13.1-16.1 17.9-4.5 3.4-9.5 6.1-14.8 8.1-6.6 2.5-13.7 3.8-20.7 3.8-2.8 0-5.5-.2-8.2-.6-5.2-.7-10.2-2.2-15-4.3v2c4.7 2 9.8 3.4 14.9 4.1h.1c2 .4 5.4.5 8.1.5l-.1-.1c7.3 0 14.6-1.3 21.5-3.9 5.4-2 10.5-4.8 15.2-8.3 6.7-5 12.3-11.2 16.5-18.4 8.8-14.6 11.4-31.5 7.2-47.4z"/>
</svg>
