<svg id="Ebene_1" xmlns="http://www.w3.org/2000/svg" viewBox="0 0 150 150">
    <style>
        .st0{fill:#d3d3d1}.st1{fill:#4b5d9d}.st2{stroke:#d3d3d1;stroke-width:1.8}.st2,.st3,.st4{fill:none}.st4{stroke:#4b5d9d;stroke-width:1.8}
    </style>
    <path class="st1" d="M75 138c-34.7 0-63-28.3-63-63s28.3-63 63-63 63 28.3 63 63-28.2 63-63 63zm0-124.2c-33.7 0-61.2 27.5-61.2 61.2s27.5 61.2 61.2 61.2 61.2-27.5 61.2-61.2S108.8 13.8 75 13.8z"/>
    <path class="st0" d="M106 113.6L79.2 53.3v-.1c3.1-1.5 5.2-4.7 5.2-8.3 0-5.1-4.2-9.3-9.3-9.3-5.1 0-9.3 4.2-9.3 9.3 0 3.6 2.1 6.8 5.2 8.3l-26.9 60.4 1.6.7 16.1-36.1c2.5 3.5 7.9 5.9 13.4 5.9 5.9 0 10.9-2.7 13.2-5.7l16 35.9 1.6-.7zM67.6 44.9c0-4.1 3.3-7.5 7.5-7.5s7.5 3.3 7.5 7.5-3.3 7.5-7.5 7.5-7.5-3.4-7.5-7.5zm7.6 37.4c-6.2 0-11-2.9-12.5-5.9L72.3 55h5.4l9.8 21.7c-1.7 2.9-6.4 5.6-12.3 5.6z"/>
    <path class="st2" d="M1.2 121.8h147.6"/>
</svg>
