<svg id="Ebene_1" xmlns="http://www.w3.org/2000/svg" viewBox="0 0 150 150">
    <style>
        .st0{fill:#d3d3d1}.st1{fill:#4b5d9d}.st2{stroke:#d3d3d1;stroke-width:1.8}.st2,.st3,.st4{fill:none}.st4{stroke:#4b5d9d;stroke-width:1.8}
    </style>
    <path class="st3" d="M97.1 127c2.5-1.6 4.8-3.3 6.9-5.2L25.8 57.7 97.1 127zm-11.3 5.8c3.3-1.3 6.6-2.9 9.7-4.8L21.9 56.4l63.9 76.4zm19.6-12.2c1.7-1.6 3.3-3.2 4.8-4.9L30.4 59.1l75 61.5zm-34.4 16c4.4-.6 8.8-1.6 13-3.1L18.6 55.2 71 136.6zm-18.1-.4c5.3.9 10.7 1.1 16.1.6L15.8 54.3l37.1 81.9zm58.4-21.9c1.2-1.4 2.2-2.9 3.3-4.4l-79-49.3 75.7 53.7zm-78.1 15.1c5.5 3 11.4 5.2 17.5 6.4L13.5 53.5l19.7 75.9zM11.5 53.1l4.2 61.9c4.4 5.3 9.6 9.7 15.3 13.1l-19.5-75zm-7.1 42c1.5 4.4 3.5 8.7 6.1 12.8 1 1.6 2.1 3.1 3.2 4.6L9.7 53 4.4 95.1zm6.1-52.3l105.1 65.6c5-7.8 8.1-16.6 9.2-25.7l-12.3-45.5c-12-15.8-30.5-24.4-49.4-24.4-11.2 0-22.6 3-32.8 9.4-8.4 5.3-15.2 12.2-20 20.2-.2.3-.4.6-.5.9l.3.1.4-.6zM3.3 58.5C2.6 61.2 2 64 1.7 66.7l4.1-13-2.5 4.8zM1.1 74.4c-.1 5.5.6 11 2 16.4l4.7-37.7-6.7 21.3z"/>
    <path class="st0" d="M31 128.1c.7.4 1.5.9 2.2 1.3L13.5 53.5l37.2 82.3c.7.1 1.4.3 2.2.4l-37-81.9L69 136.8c.7-.1 1.3-.1 2-.2L18.6 55.2 84 133.5c.6-.2 1.2-.4 1.8-.7L21.9 56.4 95.5 128c.2-.1.4-.2.6-.4.3-.2.6-.4 1-.6L25.8 57.7l78.2 64.1c.5-.4.9-.8 1.4-1.2l-75-61.5 79.8 56.5c.4-.5.8-.9 1.2-1.4L35.6 60.6l79 49.3c.3-.5.6-.9.9-1.4 0 0 0-.1.1-.1L10.5 42.8l-.5.8-.3-.1c-2.8 4.8-4.9 9.8-6.4 15.1l2.5-4.8-4.1 13c-.3 2.5-.5 5.1-.6 7.7l6.8-21.3-4.7 37.6c.4 1.4.8 2.8 1.3 4.2l5.2-42 4 59.5c.6.8 1.3 1.7 2 2.5l-4.2-61.9 19.5 75z"/>
    <path class="st4" d="M112.5 37.3c-19.2-25.2-54.8-32.1-82.2-15-8.4 5.3-15.2 12.2-20 20.2-11.9 19.5-12.6 44.8.3 65.4C28.7 137 67 145.8 96.1 127.7c8.1-5 14.6-11.6 19.4-19.2 5-7.8 8.2-16.7 9.3-25.8"/>
    <path class="st2" d="M96.1 127.7c8.1-5 14.6-11.6 19.4-19.2l-105.3-66c-11.8 19.5-12.5 44.8.4 65.4C28.7 137 67 145.8 96.1 127.7z"/>
    <path class="st2" d="M10.3 42.5c-11.9 19.5-12.6 44.8.3 65.4C28.7 137 67 145.8 96.1 127.7c8.1-5 14.6-11.6 19.4-19.2m-13.4-66.2v27l23.4 13.5 23.4-13.5v-27l-23.4-13.5z"/>
</svg>
